<svg fill="#000000" xmlns="http://www.w3.org/2000/svg"  viewBox="0 0 100 100" width="100px" height="100px"><path d="M 25.783203 17 C 20.388203 17 16 21.374 16 26.75 L 16 72.25 C 16 77.626 20.388203 82 25.783203 82 L 67.945312 82 C 68.267312 82 68.569813 81.845984 68.757812 81.583984 C 68.945812 81.323984 68.996531 80.988594 68.894531 80.683594 L 68.183594 78.558594 L 81.388672 88.789062 C 81.566672 88.928063 81.782 89 82 89 C 82.15 89 82.299453 88.966484 82.439453 88.896484 C 82.782453 88.728484 83 88.382 83 88 L 83 26.75 C 83 21.374 78.610797 17 73.216797 17 L 25.783203 17 z M 25.783203 19 L 73.216797 19 C 77.508797 19 81 22.477 81 26.75 L 81 85.960938 L 66.800781 74.957031 C 66.621781 74.817031 66.405453 74.748047 66.189453 74.748047 C 65.986453 74.748047 65.784328 74.809641 65.611328 74.931641 C 65.251328 75.186641 65.100234 75.646453 65.240234 76.064453 L 66.556641 80 L 25.783203 80 C 21.491203 80 18 76.523 18 72.25 L 18 26.75 C 18 22.477 21.491203 19 25.783203 19 z M 26.658203 22 C 23.538203 22 21 24.538203 21 27.658203 L 21 71.341797 C 21 74.461797 23.538203 77 26.658203 77 C 26.934203 77 27.158203 76.776 27.158203 76.5 C 27.158203 76.224 26.934203 76 26.658203 76 C 24.089203 76 22 73.909797 22 71.341797 L 22 27.658203 C 22 25.089203 24.089203 23 26.658203 23 L 72.34375 23 C 72.61975 23 72.84375 22.776 72.84375 22.5 C 72.84375 22.224 72.61975 22 72.34375 22 L 26.658203 22 z M 77.5 31.283203 C 77.224 31.283203 77 31.507203 77 31.783203 L 77 36.251953 C 77 36.527953 77.224 36.751953 77.5 36.751953 C 77.776 36.751953 78 36.527953 78 36.251953 L 78 31.783203 C 78 31.507203 77.776 31.283203 77.5 31.283203 z M 43.634766 33 C 43.602766 33 43.571062 33.002859 43.539062 33.005859 C 37.757063 33.561859 33.427094 36.929266 33.246094 37.072266 C 33.168094 37.133266 33.100922 37.206109 33.044922 37.287109 C 32.833922 37.591109 27.868953 44.896187 27.001953 59.117188 C 26.985953 59.380187 27.073094 59.639891 27.246094 59.837891 C 32.539094 65.894891 40.374078 65.999 40.705078 66 L 40.710938 66 C 41.025937 66 41.322719 65.850656 41.511719 65.597656 L 43.09375 63.480469 C 43.28475 63.224469 43.342047 62.892891 43.248047 62.587891 C 43.169047 62.331891 42.992766 62.119094 42.759766 61.996094 C 44.817766 62.370094 47.06 62.554688 49.5 62.554688 C 51.94 62.554688 54.182234 62.370094 56.240234 61.996094 C 56.006234 62.119094 55.830953 62.331891 55.751953 62.587891 C 55.657953 62.892891 55.71425 63.224469 55.90625 63.480469 L 57.488281 65.597656 C 57.677281 65.850656 57.974062 66 58.289062 66 L 58.294922 66 C 58.625922 65.999 66.460906 65.894891 71.753906 59.837891 C 71.926906 59.639891 72.014047 59.380188 71.998047 59.117188 C 71.131047 44.896188 66.166078 37.591109 65.955078 37.287109 C 65.897078 37.203109 65.827094 37.129406 65.746094 37.066406 C 65.554094 36.917406 60.973453 33.417906 55.439453 33.003906 C 55.415453 33.001906 55.390234 33 55.365234 33 C 54.986234 33 54.635797 33.215547 54.466797 33.560547 L 54.003906 34.507812 C 53.878906 34.762813 53.867656 35.058312 53.972656 35.320312 C 52.626656 35.143313 51.16025 35.046875 49.53125 35.046875 C 47.87625 35.046875 46.388391 35.145219 45.025391 35.324219 C 45.132391 35.061219 45.122094 34.764812 44.996094 34.507812 L 44.533203 33.560547 C 44.364203 33.215547 44.013766 33 43.634766 33 z M 43.634766 34 L 44.099609 34.947266 C 39.747609 35.911266 37.133703 37.770313 34.845703 39.820312 C 38.784703 37.805312 42.71925 36.046875 49.53125 36.046875 C 56.34325 36.046875 60.215297 37.805312 64.154297 39.820312 C 61.866297 37.771313 59.682391 36.101266 54.900391 34.947266 L 55.365234 34 C 60.663234 34.396 65.134766 37.857422 65.134766 37.857422 C 65.134766 37.857422 70.14 45.074688 71 59.179688 C 65.943 64.966687 58.289062 65 58.289062 65 L 56.707031 62.882812 C 59.407031 61.952813 62.485766 60.281 65.134766 57.25 C 61.969766 59.627 57.206 61.556641 49.5 61.556641 C 41.794 61.556641 37.030234 59.627 33.865234 57.25 C 36.514234 60.281 39.592969 61.952812 42.292969 62.882812 L 40.710938 65 C 40.710938 65 33.057 64.966688 28 59.179688 C 28.86 45.074687 33.865234 37.857422 33.865234 37.857422 C 33.865234 37.857422 38.078766 34.534 43.634766 34 z M 77.5 38.814453 C 77.224 38.814453 77 39.038453 77 39.314453 L 77 44.804688 C 77 45.080688 77.224 45.304688 77.5 45.304688 C 77.776 45.304688 78 45.080688 78 44.804688 L 78 39.314453 C 78 39.038453 77.776 38.814453 77.5 38.814453 z M 43 46 C 40.794 46 39 48.243 39 51 C 39 53.757 40.794 56 43 56 C 45.206 56 47 53.757 47 51 C 47 48.243 45.206 46 43 46 z M 56 46 C 53.794 46 52 48.243 52 51 C 52 53.757 53.794 56 56 56 C 58.206 56 60 53.757 60 51 C 60 48.243 58.206 46 56 46 z M 43 47 C 44.65 47 46 48.792 46 51 C 46 53.208 44.65 55 43 55 C 41.35 55 40 53.208 40 51 C 40 48.792 41.35 47 43 47 z M 56 47 C 57.65 47 59 48.792 59 51 C 59 53.208 57.65 55 56 55 C 54.35 55 53 53.208 53 51 C 53 48.792 54.35 47 56 47 z M 77.5 48.390625 C 77.224 48.390625 77 48.614625 77 48.890625 L 77 71.341797 C 77 72.747797 76.374203 74.065125 75.283203 74.953125 C 75.069203 75.128125 75.036937 75.44225 75.210938 75.65625 C 75.309938 75.77825 75.453609 75.841797 75.599609 75.841797 C 75.710609 75.841797 75.821062 75.805469 75.914062 75.730469 C 77.239063 74.650469 78 73.049797 78 71.341797 L 78 48.890625 C 78 48.614625 77.776 48.390625 77.5 48.390625 z M 29.882812 76 C 29.606813 76 29.382812 76.224 29.382812 76.5 C 29.382812 76.776 29.606813 77 29.882812 77 L 37.064453 77 C 37.340453 77 37.564453 76.776 37.564453 76.5 C 37.564453 76.224 37.340453 76 37.064453 76 L 29.882812 76 z M 41.373047 76 C 41.097047 76 40.873047 76.224 40.873047 76.5 C 40.873047 76.776 41.097047 77 41.373047 77 L 60.873047 77 C 61.149047 77 61.373047 76.776 61.373047 76.5 C 61.373047 76.224 61.149047 76 60.873047 76 L 41.373047 76 z"/></svg>